<?xml version="1.0" encoding="UTF-8" standalone="no"?>
<!DOCTYPE svg PUBLIC "-//W3C//DTD SVG 1.1//EN"
 "http://www.w3.org/Graphics/SVG/1.1/DTD/svg11.dtd">
<!-- Generated by graphviz version 12.2.1 (20241206.2353)
 -->
<!-- Title: G Pages: 1 -->
<svg width="498pt" height="44pt"
 viewBox="0.00 0.00 497.75 44.00" xmlns="http://www.w3.org/2000/svg" xmlns:xlink="http://www.w3.org/1999/xlink">
<g id="graph0" class="graph" transform="scale(1 1) rotate(0) translate(4 40)">
<title>G</title>
<polygon fill="white" stroke="none" points="-4,4 -4,-40 493.75,-40 493.75,4 -4,4"/>
<!-- aws_eip.lb -->
<g id="node1" class="node">
<title>aws_eip.lb</title>
<polygon fill="none" stroke="black" points="259.25,-36 178.75,-36 178.75,0 259.25,0 259.25,-36"/>
<text text-anchor="middle" x="219" y="-13.32" font-family="sans-serif" font-size="14.00">aws_eip.lb</text>
</g>
<!-- aws_instance.myec2 -->
<g id="node2" class="node">
<title>aws_instance.myec2</title>
<polygon fill="none" stroke="black" points="142.75,-36 0,-36 0,0 142.75,0 142.75,-36"/>
<text text-anchor="middle" x="71.38" y="-13.32" font-family="sans-serif" font-size="14.00">aws_instance.myec2</text>
</g>
<!-- aws_eip.lb&#45;&gt;aws_instance.myec2 -->
<g id="edge1" class="edge">
<title>aws_eip.lb&#45;&gt;aws_instance.myec2</title>
<path fill="none" stroke="black" d="M178.59,-18C171.06,-18 162.93,-18 154.62,-18"/>
<polygon fill="black" stroke="black" points="154.75,-14.5 144.75,-18 154.75,-21.5 154.75,-14.5"/>
</g>
<!-- aws_security_group.allow_tls -->
<g id="node3" class="node">
<title>aws_security_group.allow_tls</title>
<polygon fill="none" stroke="black" points="489.75,-36 295.25,-36 295.25,0 489.75,0 489.75,-36"/>
<text text-anchor="middle" x="392.5" y="-13.32" font-family="sans-serif" font-size="14.00">aws_security_group.allow_tls</text>
</g>
<!-- aws_security_group.allow_tls&#45;&gt;aws_eip.lb -->
<g id="edge2" class="edge">
<title>aws_security_group.allow_tls&#45;&gt;aws_eip.lb</title>
<path fill="none" stroke="black" d="M295.22,-18C286.91,-18 278.73,-18 271,-18"/>
<polygon fill="black" stroke="black" points="271.17,-14.5 261.17,-18 271.17,-21.5 271.17,-14.5"/>
</g>
</g>
</svg>
